<svg width="14" height="14" viewBox="0 0 14 14" fill="none" xmlns="http://www.w3.org/2000/svg">
<rect width="14" height="14" rx="7" fill="#C0E0C0"/>
<path d="M9.59251 5.70374C9.13784 4.74449 8.14617 4.08337 6.99992 4.08337C6.6169 4.08337 6.23762 4.15882 5.88376 4.30539C5.52989 4.45197 5.20836 4.66681 4.93752 4.93765C4.66669 5.20848 4.45185 5.53001 4.30527 5.88388C4.15869 6.23775 4.08325 6.61702 4.08325 7.00004C4.08325 7.38306 4.15869 7.76233 4.30527 8.1162C4.45185 8.47007 4.66669 8.7916 4.93752 9.06244C5.20836 9.33327 5.52989 9.54811 5.88376 9.69469C6.23762 9.84127 6.6169 9.91671 6.99992 9.91671C7.77347 9.91671 8.51533 9.60942 9.06231 9.06244C9.60929 8.51545 9.91659 7.77359 9.91659 7.00004M9.91659 4.08337V6.02782H7.97214" stroke="white" stroke-width="1.16667"/>
</svg>
