<svg width="451" height="145" viewBox="0 0 451 145" fill="none" xmlns="http://www.w3.org/2000/svg">
<path d="M266.071 144.332C214.922 14.0623 67.8252 23.2309 0.670166 44.0989V144.332H266.071Z" fill="#E6F3E6"/>
<path d="M143.194 144.398C202.493 -15.2568 373.03 -4.02002 450.886 21.5552V144.398H143.194Z" fill="#CBE9CB"/>
<rect x="301.696" y="10.8545" width="2.36288" height="11.9388" rx="1.18144" transform="rotate(21.2027 301.696 10.8545)" fill="#5CB65A"/>
<rect x="302.766" y="13.2334" width="2.36288" height="11.9388" rx="1.18144" transform="rotate(21.2027 302.766 13.2334)" fill="#5CB65A"/>
<rect x="298.414" y="12.7826" width="2.36288" height="11.9388" rx="1.18144" transform="rotate(21.2027 298.414 12.7826)" fill="#5CB65A"/>
<path d="M293.214 15.3925C282.32 13.9498 274.083 22.0873 271.326 26.3363C269.212 28.9065 264.797 36.646 264.051 47.0427C263.305 57.4394 270.909 65.9009 276.798 68.8683C282.687 71.8356 294.476 74.4197 305.961 62.0283C316.686 50.4573 314.835 33.0083 310.954 26.3363C308.902 22.8094 304.108 16.8351 293.214 15.3925Z" fill="#E2AA79"/>
<rect x="304.167" y="46.776" width="1.70412" height="3.00818" rx="0.85206" transform="rotate(30.1959 304.167 46.776)" fill="#DB9354"/>
<rect x="308.304" y="35.844" width="1.70412" height="4.12096" rx="0.85206" transform="rotate(-10.0766 308.304 35.844)" fill="#DB9354"/>
<rect x="290.835" y="51.848" width="1.70412" height="4.54821" rx="0.85206" transform="rotate(10.3288 290.835 51.848)" fill="#DB9354"/>
<rect x="296.184" y="62.9783" width="1.70412" height="4.45551" rx="0.85206" transform="rotate(50.7205 296.184 62.9783)" fill="#DB9354"/>
<rect x="279.391" y="60.4232" width="1.70412" height="2.61618" rx="0.85206" transform="rotate(133.403 279.391 60.4232)" fill="#DB9354"/>
<rect x="273.679" y="46.6931" width="1.70412" height="4.45551" rx="0.85206" transform="rotate(25.7984 273.679 46.6931)" fill="#DB9354"/>
<rect x="270.346" y="37.4839" width="1.70412" height="3.08895" rx="0.85206" transform="rotate(19.5186 270.346 37.4839)" fill="#DB9354"/>
<ellipse cx="296.956" cy="37.6084" rx="1.9898" ry="1.11926" fill="#F87FB2"/>
<ellipse cx="279.421" cy="37.6084" rx="1.9898" ry="1.11926" fill="#F87FB2"/>
<ellipse cx="288.561" cy="38.7276" rx="1.92762" ry="2.86033" fill="white"/>
<ellipse cx="284.555" cy="34.437" rx="2.2735" ry="2.42507" fill="#442E2E"/>
<ellipse cx="284.701" cy="35.3227" rx="1.40603" ry="0.903874" transform="rotate(-30.4524 284.701 35.3227)" fill="white"/>
<ellipse cx="283.987" cy="33.441" rx="1.06097" ry="0.68205" transform="rotate(-30.4524 283.987 33.441)" fill="white"/>
<ellipse cx="292.265" cy="34.437" rx="2.2735" ry="2.42507" fill="#442E2E"/>
<ellipse cx="292.411" cy="35.3227" rx="1.40603" ry="0.903874" transform="rotate(-30.4524 292.411 35.3227)" fill="white"/>
<ellipse cx="291.698" cy="33.441" rx="1.06097" ry="0.68205" transform="rotate(-30.4524 291.698 33.441)" fill="white"/>
<path d="M94.2139 15.1692C83.3198 13.7266 75.0828 21.864 72.3261 26.1131C70.212 28.6832 65.7971 36.4227 65.0509 46.8194C64.3048 57.2161 71.9091 65.6777 77.7981 68.645C83.6871 71.6123 95.4757 74.1965 106.961 61.8051C117.686 50.234 115.835 32.785 111.954 26.1131C109.902 22.5861 105.108 16.6118 94.2139 15.1692Z" fill="#D59864"/>
<ellipse cx="84.905" cy="34.6492" rx="1.86543" ry="1.9898" fill="#442E2E"/>
<ellipse cx="94.1076" cy="34.6492" rx="1.86543" ry="1.9898" fill="#442E2E"/>
<path fill-rule="evenodd" clip-rule="evenodd" d="M84.6794 38.6288C84.0764 38.6288 83.6085 39.1668 83.7882 39.7424C84.6024 42.3504 86.8549 44.2251 89.5061 44.2251C92.1573 44.2251 94.4098 42.3504 95.224 39.7424C95.4037 39.1668 94.9358 38.6288 94.3328 38.6288H84.6794Z" fill="white"/>
<rect x="105.167" y="46.5529" width="1.70412" height="3.00818" rx="0.85206" transform="rotate(30.1959 105.167 46.5529)" fill="#CA8447"/>
<rect x="109.304" y="35.6208" width="1.70412" height="4.12096" rx="0.85206" transform="rotate(-10.0766 109.304 35.6208)" fill="#CA8447"/>
<rect x="91.835" y="51.6248" width="1.70412" height="4.54821" rx="0.85206" transform="rotate(10.3288 91.835 51.6248)" fill="#CA8447"/>
<rect x="97.1833" y="62.7551" width="1.70412" height="4.45551" rx="0.85206" transform="rotate(50.7205 97.1833 62.7551)" fill="#CA8447"/>
<rect x="80.3904" y="60.2" width="1.70412" height="2.61618" rx="0.85206" transform="rotate(133.403 80.3904 60.2)" fill="#CA8447"/>
<rect x="74.6794" y="46.4698" width="1.70412" height="4.45551" rx="0.85206" transform="rotate(25.7984 74.6794 46.4698)" fill="#CA8447"/>
<rect x="71.3457" y="37.2607" width="1.70412" height="3.08895" rx="0.85206" transform="rotate(19.5186 71.3457 37.2607)" fill="#CA8447"/>
<circle cx="98.1496" cy="37.1986" r="2.05198" fill="#FFC4D2"/>
<circle cx="80.3657" cy="37.1986" r="2.05198" fill="#FFC4D2"/>
<path d="M357.214 15.1692C346.32 13.7266 338.083 21.864 335.326 26.1131C333.212 28.6832 328.797 36.4227 328.051 46.8194C327.305 57.2161 334.909 65.6777 340.798 68.645C346.687 71.6123 358.476 74.1965 369.961 61.8051C380.686 50.234 378.835 32.785 374.954 26.1131C372.902 22.5861 368.108 16.6118 357.214 15.1692Z" fill="#D49864"/>
<ellipse cx="347.905" cy="34.6492" rx="1.86543" ry="1.9898" fill="#442E2E"/>
<ellipse cx="357.108" cy="34.6492" rx="1.86543" ry="1.9898" fill="#442E2E"/>
<rect x="368.167" y="46.5529" width="1.70412" height="3.00818" rx="0.85206" transform="rotate(30.1959 368.167 46.5529)" fill="#CA8347"/>
<rect x="372.304" y="35.6208" width="1.70412" height="4.12096" rx="0.85206" transform="rotate(-10.0766 372.304 35.6208)" fill="#CA8347"/>
<rect x="354.835" y="51.6248" width="1.70412" height="4.54821" rx="0.85206" transform="rotate(10.3288 354.835 51.6248)" fill="#CA8347"/>
<rect x="360.183" y="62.7551" width="1.70412" height="4.45551" rx="0.85206" transform="rotate(50.7205 360.183 62.7551)" fill="#CA8347"/>
<rect x="343.391" y="60.2" width="1.70412" height="2.61618" rx="0.85206" transform="rotate(133.403 343.391 60.2)" fill="#CA8347"/>
<rect x="337.679" y="46.4698" width="1.70412" height="4.45551" rx="0.85206" transform="rotate(25.7984 337.679 46.4698)" fill="#CA8347"/>
<rect x="334.346" y="37.2607" width="1.70412" height="3.08895" rx="0.85206" transform="rotate(19.5186 334.346 37.2607)" fill="#CA8347"/>
<ellipse cx="361.018" cy="37.3229" rx="2.05198" ry="1.05708" fill="#FCA4B9"/>
<ellipse cx="343.856" cy="37.3229" rx="2.05198" ry="1.05708" fill="#FCA4B9"/>
<rect width="0.497449" height="2.36288" rx="0.248725" transform="matrix(-0.730599 -0.682807 -0.682807 0.730599 359.948 32.626)" fill="#442E2E"/>
<rect width="0.497449" height="2.36288" rx="0.248725" transform="matrix(-0.730599 -0.682807 -0.682807 0.730599 350.621 32.626)" fill="#442E2E"/>
<ellipse cx="352.561" cy="38.1313" rx="1.92762" ry="2.86033" fill="white"/>
<path d="M158.214 15.1692C147.32 13.7266 139.083 21.864 136.326 26.1131C134.212 28.6832 129.797 36.4227 129.051 46.8194C128.305 57.2161 135.909 65.6777 141.798 68.645C147.687 71.6123 159.476 74.1965 170.961 61.8051C181.686 50.234 179.835 32.785 175.954 26.1131C173.902 22.5861 169.108 16.6118 158.214 15.1692Z" fill="#E2AA79"/>
<rect x="169.167" y="46.5529" width="1.70412" height="3.00818" rx="0.85206" transform="rotate(30.1959 169.167 46.5529)" fill="#E19451"/>
<rect x="173.304" y="35.6208" width="1.70412" height="4.12096" rx="0.85206" transform="rotate(-10.0766 173.304 35.6208)" fill="#E19451"/>
<rect x="155.835" y="51.6249" width="1.70412" height="4.54821" rx="0.85206" transform="rotate(10.3288 155.835 51.6249)" fill="#E19451"/>
<rect x="161.184" y="62.7551" width="1.70412" height="4.45551" rx="0.85206" transform="rotate(50.7205 161.184 62.7551)" fill="#E19451"/>
<rect x="144.391" y="60.2001" width="1.70412" height="2.61618" rx="0.85206" transform="rotate(133.403 144.391 60.2001)" fill="#E19451"/>
<rect x="138.679" y="46.47" width="1.70412" height="4.45551" rx="0.85206" transform="rotate(25.7984 138.679 46.47)" fill="#E19451"/>
<rect x="135.346" y="37.2609" width="1.70412" height="3.08895" rx="0.85206" transform="rotate(19.5186 135.346 37.2609)" fill="#E19451"/>
<ellipse cx="162.64" cy="38.0691" rx="2.05198" ry="1.67889" fill="#FFC4D2"/>
<ellipse cx="144.11" cy="38.1935" rx="2.05198" ry="1.67889" fill="#FFC4D2"/>
<path fill-rule="evenodd" clip-rule="evenodd" d="M159.936 32.0338C159.936 31.9545 159.854 31.9029 159.788 31.947V31.947L155.886 34.5537C155.431 34.8576 155.431 35.3504 155.886 35.6543L159.788 38.261V38.261C159.854 38.3051 159.936 38.2535 159.936 38.1741V37.0587C159.936 37.0257 159.919 36.9953 159.892 36.977V36.977L157.808 35.585C157.353 35.281 157.353 34.7882 157.808 34.4843L159.684 33.231V33.231C159.826 33.1361 159.936 32.9896 159.936 32.8188V32.0338Z" fill="#442E2E"/>
<path fill-rule="evenodd" clip-rule="evenodd" d="M146.908 38.1243C146.908 38.2036 146.991 38.2552 147.057 38.2111V38.2111L150.958 35.6044C151.413 35.3005 151.413 34.8077 150.958 34.5038L147.057 31.8971V31.8971C146.991 31.853 146.908 31.9046 146.908 31.9839V33.0994C146.908 33.1324 146.926 33.1628 146.953 33.1811V33.1811L149.037 34.5731C149.491 34.8771 149.491 35.3699 149.037 35.6738L147.161 36.9271V36.9271C147.019 37.022 146.908 37.1684 146.908 37.3392V38.1243Z" fill="#442E2E"/>
<path fill-rule="evenodd" clip-rule="evenodd" d="M148.925 38.5045C148.322 38.5045 147.855 39.0425 148.034 39.6182C148.848 42.2262 151.101 44.1009 153.752 44.1009C156.403 44.1009 158.656 42.2262 159.47 39.6182C159.65 39.0425 159.182 38.5045 158.579 38.5045H148.925Z" fill="white"/>
<path d="M226.275 7.1927C213.867 5.54955 204.485 14.8182 201.345 19.658C198.937 22.5854 193.908 31.4008 193.058 43.2429C192.208 55.0849 200.87 64.7227 207.577 68.1026C214.285 71.4824 227.712 74.4258 240.794 60.3118C253.01 47.1322 250.902 27.2575 246.481 19.658C244.144 15.6407 238.684 8.83586 226.275 7.1927Z" fill="#D59761"/>
<ellipse cx="215.672" cy="29.3808" rx="2.12476" ry="2.26641" fill="#442E2E"/>
<rect x="238.751" y="42.9392" width="1.94102" height="3.42637" rx="0.970511" transform="rotate(30.1959 238.751 42.9392)" fill="#C87B38"/>
<rect x="243.464" y="30.4875" width="1.94102" height="4.69385" rx="0.970511" transform="rotate(-10.0766 243.464 30.4875)" fill="#C87B38"/>
<rect x="223.566" y="48.7163" width="1.94102" height="5.1805" rx="0.970511" transform="rotate(10.3288 223.566 48.7163)" fill="#C87B38"/>
<rect x="229.657" y="61.3939" width="1.94102" height="5.07491" rx="0.970511" transform="rotate(50.7205 229.657 61.3939)" fill="#C87B38"/>
<rect x="210.53" y="58.4838" width="1.94102" height="2.97987" rx="0.970511" transform="rotate(133.403 210.53 58.4838)" fill="#C87B38"/>
<rect x="204.025" y="42.8447" width="1.94102" height="5.07491" rx="0.970511" transform="rotate(25.7984 204.025 42.8447)" fill="#C87B38"/>
<rect x="200.228" y="32.3555" width="1.94102" height="3.51836" rx="0.970511" transform="rotate(19.5186 200.228 32.3555)" fill="#C87B38"/>
<path fill-rule="evenodd" clip-rule="evenodd" d="M217.273 32.922C216.993 32.922 216.764 33.1522 216.801 33.43C217.076 35.4714 218.826 37.0454 220.943 37.0454C223.06 37.0454 224.809 35.4712 225.084 33.4295C225.121 33.152 224.892 32.922 224.612 32.922V32.922C224.338 32.922 224.119 33.1432 224.072 33.4132C223.813 34.9067 222.511 36.0425 220.943 36.0425C219.376 36.0425 218.073 34.907 217.814 33.4136C217.767 33.1434 217.548 32.922 217.273 32.922V32.922Z" fill="#442E2E"/>
<path fill-rule="evenodd" clip-rule="evenodd" d="M227.421 27.4625C227.421 27.2757 227.235 27.1437 227.08 27.2474V27.2474L224.049 29.2727C223.53 29.6189 223.53 30.1802 224.049 30.5264L227.08 32.5517V32.5517C227.235 32.6555 227.421 32.5234 227.421 32.3366V31.8294C227.421 31.6588 227.314 31.5109 227.172 31.4161V31.4161L225.748 30.4651C225.23 30.1189 225.23 29.5576 225.748 29.2114L226.988 28.3831C227.011 28.3676 227.035 28.3528 227.06 28.3387C227.26 28.2229 227.421 28.0295 227.421 27.798V27.4625Z" fill="#442E2E"/>
<circle cx="231.033" cy="33.9845" r="2.33724" fill="#FFC4D2"/>
<circle cx="210.777" cy="33.9845" r="2.33724" fill="#FFC4D2"/>
<path d="M231.372 2.43488C231.197 2.3213 230.984 2.24825 230.759 2.22407C230.533 2.19989 230.303 2.22555 230.095 2.29812L226.227 3.63598L223.979 0.484575C223.872 0.337444 223.716 0.215087 223.528 0.129966C223.34 0.0448445 223.126 0 222.909 0C222.691 0 222.478 0.0448445 222.29 0.129966C222.102 0.215087 221.946 0.337444 221.839 0.484575L219.591 3.63598L215.723 2.29812C215.514 2.22565 215.284 2.19996 215.058 2.22394C214.832 2.24792 214.619 2.32063 214.443 2.43383C214.267 2.54703 214.136 2.69622 214.063 2.86452C213.991 3.03283 213.98 3.21355 214.033 3.38625L215.975 9.82582C216.012 9.95049 216.081 10.068 216.179 10.1712C216.276 10.2745 216.399 10.3613 216.541 10.4264C216.732 10.5156 216.952 10.5629 217.175 10.5631C217.284 10.563 217.392 10.551 217.496 10.5274C221.036 9.76634 224.774 9.76634 228.314 10.5274C228.637 10.5935 228.981 10.5572 229.269 10.4264C229.412 10.3621 229.536 10.2755 229.633 10.1722C229.73 10.0688 229.799 9.95088 229.835 9.82582L231.785 3.38625C231.837 3.2135 231.826 3.03287 231.753 2.86475C231.68 2.69664 231.548 2.54774 231.372 2.43488Z" fill="#FFC943"/>
</svg>
