<svg width="14" height="14" viewBox="0 0 14 14" fill="none" xmlns="http://www.w3.org/2000/svg">
<path d="M7 0C10.8661 0 14 3.1339 14 7C14 10.8661 10.8661 14 7 14C3.1339 14 0 10.8661 0 7C0 3.1339 3.1339 0 7 0ZM5.5153 4.5248C5.38962 4.39792 5.2202 4.32388 5.04172 4.31782C4.86323 4.31177 4.68918 4.37416 4.55519 4.49223C4.4212 4.61029 4.33741 4.77511 4.32096 4.95294C4.30451 5.13076 4.35664 5.30816 4.4667 5.4488L4.5255 5.5153L6.0095 6.9993L4.5255 8.4847C4.39862 8.61038 4.32458 8.7798 4.31852 8.95828C4.31247 9.13677 4.37486 9.31082 4.49293 9.44481C4.61099 9.5788 4.77581 9.66259 4.95364 9.67904C5.13146 9.69549 5.30885 9.64336 5.4495 9.5333L5.5153 9.4752L7 7.9898L8.4847 9.4752C8.61038 9.60208 8.7798 9.67612 8.95828 9.68218C9.13677 9.68823 9.31082 9.62584 9.44481 9.50777C9.5788 9.38971 9.66259 9.22489 9.67904 9.04706C9.69549 8.86924 9.64336 8.69184 9.5333 8.5512L9.4752 8.4847L7.9898 7L9.4752 5.5153C9.60208 5.38962 9.67612 5.2202 9.68218 5.04172C9.68823 4.86323 9.62584 4.68918 9.50777 4.55519C9.38971 4.4212 9.22489 4.33741 9.04706 4.32096C8.86924 4.30451 8.69184 4.35664 8.5512 4.4667L8.4847 4.5248L7 6.0102L5.5153 4.5248Z" fill="#C0E0C0"/>
</svg>
