<svg width="17" height="17" viewBox="0 0 17 17" fill="none" xmlns="http://www.w3.org/2000/svg">
<rect x="0.364014" y="0.713989" width="15.984" height="15.984" rx="7.992" fill="#C0E0C0"/>
<path d="M12.1964 4.10118C12.319 4.18443 12.3692 4.29543 12.3469 4.43418L10.9198 12.4262C10.9012 12.5268 10.8418 12.6048 10.7414 12.6603C10.6894 12.6881 10.6318 12.7019 10.5686 12.7019C10.5277 12.7019 10.4831 12.6933 10.4348 12.6759L7.90948 11.7134L6.56041 13.2483C6.49351 13.3281 6.40246 13.3679 6.28725 13.3679C6.23893 13.3679 6.19805 13.361 6.1646 13.3471C6.09399 13.3229 6.03732 13.2821 5.99458 13.2249C5.95184 13.1676 5.93047 13.1043 5.93047 13.0349V11.2191L10.747 5.70895L4.78766 10.5218L2.58567 9.67893C2.44816 9.63037 2.37383 9.53498 2.36268 9.39276C2.35525 9.25401 2.41471 9.15168 2.54107 9.08577L11.8173 4.09077C11.8731 4.05955 11.9325 4.04395 11.9957 4.04395C12.07 4.04395 12.1369 4.06302 12.1964 4.10118Z" fill="white"/>
</svg>
