<svg width="817" height="385" viewBox="0 0 817 385" fill="none" xmlns="http://www.w3.org/2000/svg">
<path fill-rule="evenodd" clip-rule="evenodd" d="M559.484 15.617C556.286 13.487 551.967 14.3526 549.837 17.5504L540.123 32.1343C542.216 28.941 541.344 24.6515 538.16 22.5312C534.963 20.4012 530.644 21.2668 528.514 24.4646L497.254 71.3949C496.515 72.5046 496.136 73.7493 496.091 74.9907C495.558 78.9163 497.546 88.5166 506.579 92.6567C510.946 94.6584 516.579 95.2448 521.591 94.1213C525.822 93.1729 529.61 91.0158 531.819 88.8299C532.376 88.389 532.873 87.8548 533.288 87.2321L564.548 40.3018C566.678 37.104 565.812 32.785 562.614 30.6549C561.381 29.8332 559.98 29.4573 558.603 29.4892L561.417 25.2638C563.547 22.066 562.681 17.747 559.484 15.617Z" fill="#5CB65A"/>
<path d="M440.289 16.9106C376.139 8.41572 327.635 56.3334 311.402 81.3542C298.953 96.4886 272.956 142.063 268.562 203.284C264.168 264.506 308.946 314.332 343.624 331.805C378.302 349.279 447.719 364.496 515.351 291.528C578.506 223.392 567.609 120.642 544.751 81.3542C532.668 60.5854 504.44 25.4054 440.289 16.9106Z" fill="#D59864"/>
<path fill-rule="evenodd" clip-rule="evenodd" d="M370.639 205.583C368.41 205.583 366.687 203.601 367.222 201.438C371.328 184.838 385.149 172.629 401.566 172.629C417.984 172.629 431.805 184.838 435.911 201.438C436.446 203.601 434.723 205.583 432.494 205.583H370.639Z" fill="white"/>
<rect x="504.789" y="201.715" width="10.0348" height="17.7138" rx="5.0174" transform="rotate(30.1959 504.789 201.715)" fill="#CA8447"/>
<rect x="529.151" y="137.342" width="10.0348" height="24.2665" rx="5.0174" transform="rotate(-10.0766 529.151 137.342)" fill="#CA8447"/>
<rect x="426.281" y="231.581" width="10.0348" height="26.7824" rx="5.0174" transform="rotate(10.3288 426.281 231.581)" fill="#CA8447"/>
<rect x="457.776" y="297.123" width="10.0348" height="26.2365" rx="5.0174" transform="rotate(50.7205 457.776 297.123)" fill="#CA8447"/>
<rect x="358.889" y="282.077" width="10.0348" height="15.4055" rx="5.0174" transform="rotate(133.403 358.889 282.077)" fill="#CA8447"/>
<rect x="325.26" y="201.226" width="10.0348" height="26.2365" rx="5.0174" transform="rotate(25.7984 325.26 201.226)" fill="#CA8447"/>
<rect x="305.628" y="146.998" width="10.0348" height="18.1894" rx="5.0174" transform="rotate(19.5186 305.628 146.998)" fill="#CA8447"/>
<path d="M458.663 178.488C458.663 182.33 455.548 185.445 451.706 185.445C447.864 185.445 444.749 182.33 444.749 178.488C444.749 174.646 447.864 159.448 451.706 159.448C455.548 159.448 458.663 174.646 458.663 178.488Z" fill="#BCECF5"/>
<path fill-rule="evenodd" clip-rule="evenodd" d="M410.594 148.463C409.146 148.463 407.961 149.653 408.155 151.088C409.577 161.642 418.621 169.78 429.565 169.78C440.509 169.78 449.553 161.642 450.975 151.088C451.169 149.653 449.984 148.463 448.536 148.463C447.119 148.463 445.985 149.607 445.742 151.003C444.402 158.724 437.669 164.595 429.565 164.595C421.461 164.595 414.728 158.724 413.388 151.003C413.145 149.607 412.011 148.463 410.594 148.463Z" fill="#442E2E"/>
<path fill-rule="evenodd" clip-rule="evenodd" d="M354.938 148.463C353.49 148.463 352.305 149.653 352.499 151.088C353.921 161.642 362.965 169.78 373.909 169.78C384.853 169.78 393.897 161.642 395.32 151.088C395.513 149.653 394.328 148.463 392.88 148.463C391.463 148.463 390.329 149.607 390.086 151.003C388.746 158.724 382.013 164.595 373.909 164.595C365.805 164.595 359.073 158.724 357.732 151.003C357.49 149.607 356.356 148.463 354.938 148.463Z" fill="#442E2E"/>
<rect x="463.79" y="90.61" width="5.12619" height="34.4187" rx="2.5631" fill="#595A66"/>
<rect x="473.31" y="90.61" width="5.12619" height="45.4034" rx="2.5631" fill="#595A66"/>
<rect x="482.83" y="90.61" width="5.12619" height="57.8528" rx="2.5631" fill="#595A66"/>
<path d="M140.253 31.4283L69.5118 220.365H134.541V140.397H191.662V339H134.541V275.289H53.2545C27.77 262.107 15.0277 241.749 15.0277 214.214C15.0277 201.618 22.0579 177.745 36.1183 142.593L80.0572 31.4283H140.253Z" fill="#238639"/>
<path d="M744.412 32.4283L673.671 221.365H738.7V141.397H795.82V340H738.7V276.289H657.413C631.929 263.107 619.186 242.749 619.186 215.214C619.186 202.618 626.217 178.745 640.277 143.593L684.216 32.4283H744.412Z" fill="#238639"/>
<g clip-path="url(#clip0_130_100)">
<path d="M174.213 103.761C174.327 104.172 174.488 105.188 175.14 105.002C175.567 104.879 175.893 104.028 176.207 103.732C179.213 100.853 182.943 100.451 186.922 100.425C187.93 100.417 191.685 100.739 192.312 99.7478C192.523 99.4049 191.99 99.261 191.863 98.9392C191.313 97.5929 192.663 95.9714 193.641 95.2347C194.877 94.2991 196.622 93.9646 198.027 94.7309C198.882 95.1924 199.543 95.9799 199.119 97.0171C198.95 97.4278 197.862 98.0586 198.298 98.4947C198.535 98.7318 199.069 98.6386 199.365 98.6047C200.127 98.5201 200.868 98.2999 201.605 98.084C203.387 97.576 205.097 96.8689 206.736 96.0137C209.975 94.3287 212.87 92.051 215.343 89.3711C217.926 86.5811 219.594 83.0036 220.296 79.278C220.576 77.775 220.707 76.2424 220.673 74.7098C220.601 71.4964 219.255 68.6683 221.152 65.6667C221.465 65.1713 221.761 64.6971 222.142 64.2526C222.887 63.3805 223.662 62.5718 224.441 61.7293C225.178 60.9419 226.02 60.3026 226.744 59.5024C227.642 58.5117 226.918 57.4575 226.16 56.6023C225.453 55.8022 224.221 55.4592 223.196 55.8318C222.058 56.2467 221.744 57.6184 221.207 58.571C220.639 59.5786 220.051 60.5693 219.399 61.5176C218.899 62.2374 218.374 63.0375 217.633 63.5329C216.583 64.2357 215.978 63.8462 214.86 63.5794C214.225 63.4313 213.616 63.2323 213.01 62.9825C211.808 62.4956 210.652 61.8775 209.416 61.4795C205.868 60.3491 202.053 59.7988 198.332 60.0485C197.794 60.0824 196.715 59.93 196.833 60.7937C196.931 61.4965 197.824 61.3864 198.302 61.6912C203.069 64.7225 200.267 71.488 195.965 73.4736C191.918 75.3406 185.335 74.6294 184.111 69.5743C184.031 69.2483 184.141 68.3212 183.861 68.1095C182.079 66.7886 175.61 81.6827 175.089 83.3381C173.074 89.714 172.392 97.2627 174.213 103.761Z" fill="#FFC943"/>
<path d="M175.453 102.106C175.508 102.119 175.576 102.098 175.665 102.03C175.889 101.856 176.063 101.361 176.16 101.098C177.722 96.907 180.283 94.0874 183.785 91.399C185.656 89.9638 187.718 88.7995 189.775 87.6564C192.57 86.1027 195.377 84.5785 198.124 82.9443C201.304 81.0561 205.546 78.8419 208.484 76.6065C210.453 75.1035 212.438 73.6175 214.25 71.9283C214.864 71.3525 215.465 70.7598 216.029 70.129C216.63 69.4558 217.519 68.554 217.646 67.6141C217.709 67.1569 217.303 66.6235 216.803 66.6573C216.202 66.7039 215.681 67.6904 215.305 68.101C214.665 68.7911 213.996 69.4473 213.344 70.129C212.396 71.1154 211.443 72.0976 210.393 72.9698C207.942 75.0062 205.313 76.8944 202.62 78.6048C201.079 79.5786 199.513 80.5015 197.913 81.3736C194.847 83.0459 191.778 84.7182 188.776 86.5006C184.39 89.1086 179.822 91.9706 177.155 96.471C176.884 96.9282 174.466 101.911 175.453 102.106Z" fill="#C87B38"/>
</g>
<g clip-path="url(#clip1_130_100)">
<path d="M736.524 381.308C736.409 381.719 736.248 382.735 735.596 382.549C735.169 382.426 734.843 381.575 734.53 381.279C731.524 378.4 727.794 377.998 723.814 377.972C722.806 377.964 719.051 378.285 718.425 377.295C718.213 376.952 718.746 376.808 718.873 376.486C719.424 375.14 718.073 373.518 717.095 372.782C715.859 371.846 714.115 371.511 712.709 372.278C711.854 372.739 711.193 373.527 711.617 374.564C711.786 374.975 712.874 375.605 712.438 376.042C712.201 376.279 711.668 376.185 711.371 376.152C710.609 376.067 709.868 375.847 709.132 375.631C707.349 375.123 705.639 374.416 704 373.561C700.762 371.876 697.866 369.598 695.393 366.918C692.811 364.128 691.143 360.55 690.44 356.825C690.161 355.322 690.029 353.789 690.063 352.257C690.135 349.043 691.481 346.215 689.585 343.214C689.271 342.718 688.975 342.244 688.594 341.799C687.849 340.927 687.074 340.119 686.295 339.276C685.559 338.489 684.716 337.849 683.992 337.049C683.095 336.059 683.818 335.004 684.576 334.149C685.283 333.349 686.515 333.006 687.54 333.379C688.679 333.794 688.992 335.165 689.53 336.118C690.097 337.125 690.686 338.116 691.337 339.065C691.837 339.784 692.362 340.584 693.103 341.08C694.153 341.783 694.758 341.393 695.876 341.126C696.511 340.978 697.121 340.779 697.726 340.529C698.928 340.042 700.084 339.424 701.321 339.026C704.868 337.896 708.683 337.346 712.404 337.595C712.942 337.629 714.022 337.477 713.903 338.341C713.806 339.043 712.912 338.933 712.434 339.238C707.667 342.269 710.47 349.035 714.771 351.02C718.818 352.888 725.402 352.176 726.625 347.121C726.706 346.795 726.596 345.868 726.875 345.656C728.657 344.335 735.127 359.23 735.647 360.885C737.663 367.261 738.344 374.81 736.524 381.308Z" fill="#FFC943"/>
<path d="M735.283 379.653C735.228 379.665 735.16 379.644 735.071 379.577C734.847 379.403 734.673 378.908 734.576 378.645C733.014 374.454 730.452 371.634 726.951 368.946C725.08 367.511 723.018 366.346 720.96 365.203C718.166 363.649 715.359 362.125 712.612 360.491C709.432 358.603 705.19 356.389 702.252 354.153C700.283 352.65 698.297 351.164 696.485 349.475C695.872 348.899 695.27 348.307 694.707 347.676C694.106 347.003 693.217 346.101 693.09 345.161C693.027 344.704 693.433 344.17 693.933 344.204C694.534 344.251 695.054 345.237 695.431 345.648C696.071 346.338 696.739 346.994 697.391 347.676C698.34 348.662 699.292 349.644 700.342 350.517C702.794 352.553 705.423 354.441 708.115 356.152C709.656 357.125 711.223 358.048 712.823 358.92C715.888 360.593 718.958 362.265 721.96 364.047C726.346 366.655 730.914 369.517 733.581 374.018C733.852 374.475 736.269 379.458 735.283 379.653Z" fill="#C87B38"/>
</g>
<path d="M323.918 2C317.165 20.438 304.645 43.0828 281.879 43.0828C276.917 43.0828 275.126 41.3307 273.81 36.2357C273.027 33.2028 272.491 27.849 274.969 25.3608C277.274 23.0468 284.312 25.5211 286.203 27.4194C288.802 30.0284 290.216 32.9647 290.216 36.6832C290.216 44.3354 286.967 48.0102 281.255 52.8388C272.947 59.8621 259.494 66.4436 248.489 66.4436" stroke="#442E2E" stroke-width="2.19694" stroke-linecap="round"/>
<path d="M660.731 347.307C641.796 342.111 618.188 331.517 616.295 308.83C615.883 303.885 617.48 301.955 622.448 300.22C625.405 299.187 630.696 298.208 633.382 300.471C635.879 302.576 633.999 309.795 632.264 311.837C629.88 314.644 627.072 316.296 623.366 316.606C615.74 317.242 611.808 314.31 606.521 309.019C598.832 301.324 591.154 288.465 590.239 277.498" stroke="#442E2E" stroke-width="2.19694" stroke-linecap="round"/>
<defs>
<clipPath id="clip0_130_100">
<rect width="54.1912" height="54.1912" fill="white" transform="matrix(-1 0 0 -1 227.252 107.453)"/>
</clipPath>
<clipPath id="clip1_130_100">
<rect width="54.1912" height="54.1912" fill="white" transform="matrix(1 0 0 -1 683.484 385)"/>
</clipPath>
</defs>
</svg>
