<svg width="4" height="16" viewBox="0 0 4 16" fill="none" xmlns="http://www.w3.org/2000/svg"><path fill-rule="evenodd" clip-rule="evenodd" d="M2.0002 3.19998C2.7152 3.19998 3.3002 2.61498 3.3002 1.89998C3.3002 1.18498 2.7152 0.599976 2.0002 0.599976C1.2852 0.599976 0.700195 1.18498 0.700195 1.89998C0.700195 2.61498 1.2852 3.19998 2.0002 3.19998Z" fill="currentColor"></path><path fill-rule="evenodd" clip-rule="evenodd" d="M2.0002 6.70001C1.2852 6.70001 0.700195 7.28501 0.700195 8.00001C0.700195 8.71501 1.2852 9.30001 2.0002 9.30001C2.7152 9.30001 3.3002 8.71501 3.3002 8.00001C3.3002 7.28501 2.7152 6.70001 2.0002 6.70001Z" fill="currentColor"></path><path fill-rule="evenodd" clip-rule="evenodd" d="M2.0002 12.8C1.2852 12.8 0.700195 13.385 0.700195 14.1C0.700195 14.815 1.2852 15.4 2.0002 15.4C2.7152 15.4 3.3002 14.815 3.3002 14.1C3.3002 13.385 2.7152 12.8 2.0002 12.8Z" fill="currentColor"></path></svg>