<svg width="40" height="41" viewBox="0 0 40 41" fill="none" xmlns="http://www.w3.org/2000/svg">
<mask id="mask0_118_472" style="mask-type:luminance" maskUnits="userSpaceOnUse" x="0" y="0" width="40" height="41">
<path d="M35 2.3999H5C4.20435 2.3999 3.44129 2.71597 2.87868 3.27858C2.31607 3.84119 2 4.60425 2 5.3999V35.3999C2 36.1956 2.31607 36.9586 2.87868 37.5212C3.44129 38.0838 4.20435 38.3999 5 38.3999H35C35.7956 38.3999 36.5587 38.0838 37.1213 37.5212C37.6839 36.9586 38 36.1956 38 35.3999V5.3999C38 4.60425 37.6839 3.84119 37.1213 3.27858C36.5587 2.71597 35.7956 2.3999 35 2.3999Z" stroke="white" stroke-width="4" stroke-linecap="round" stroke-linejoin="round"/>
<path d="M14 19.3999C15.3261 19.3999 16.5979 18.8731 17.5355 17.9354C18.4732 16.9978 19 15.726 19 14.3999C19 13.0738 18.4732 11.8021 17.5355 10.8644C16.5979 9.92669 15.3261 9.3999 14 9.3999C12.6739 9.3999 11.4021 9.92669 10.4645 10.8644C9.52678 11.8021 9 13.0738 9 14.3999C9 15.726 9.52678 16.9978 10.4645 17.9354C11.4021 18.8731 12.6739 19.3999 14 19.3999Z" fill="white" stroke="white" stroke-width="4" stroke-linecap="round" stroke-linejoin="round"/>
<path d="M23.79 22.6201C23.9795 22.3663 24.2266 22.1613 24.5108 22.0217C24.7951 21.8821 25.1084 21.812 25.4251 21.8172C25.7417 21.8223 26.0526 21.9026 26.3321 22.0514C26.6117 22.2002 26.8519 22.4133 27.033 22.6731L35.808 35.2561C36.732 36.5821 35.783 38.4001 34.168 38.4001H12L23.79 22.6201Z" stroke="white" stroke-width="4" stroke-linecap="round" stroke-linejoin="round"/>
</mask>
<g mask="url(#mask0_118_472)">
<path d="M-4 -3.6001H44V44.3999H-4V-3.6001Z" fill="#D1D3D8"/>
</g>
</svg>
