<svg width="20" height="20" viewBox="0 0 20 20" fill="none" xmlns="http://www.w3.org/2000/svg">
<path d="M12.8313 7.83125L10.6625 10L12.8313 12.1687C12.8773 12.2117 12.9142 12.2634 12.9399 12.3209C12.9655 12.3784 12.9793 12.4405 12.9804 12.5034C12.9815 12.5664 12.9699 12.6289 12.9463 12.6872C12.9228 12.7456 12.8877 12.7986 12.8432 12.8431C12.7986 12.8877 12.7456 12.9228 12.6873 12.9463C12.6289 12.9699 12.5664 12.9815 12.5034 12.9804C12.4405 12.9793 12.3784 12.9655 12.3209 12.9399C12.2634 12.9142 12.2117 12.8773 12.1688 12.8313L10 10.6625L7.83125 12.8313C7.74239 12.9141 7.62487 12.9591 7.50343 12.957C7.38199 12.9548 7.26612 12.9056 7.18024 12.8198C7.09436 12.7339 7.04516 12.618 7.04302 12.4966C7.04088 12.3751 7.08595 12.2576 7.16875 12.1687L9.3375 10L7.16875 7.83125C7.08595 7.74239 7.04088 7.62486 7.04302 7.50342C7.04516 7.38199 7.09436 7.26612 7.18024 7.18024C7.26612 7.09435 7.38199 7.04516 7.50343 7.04302C7.62487 7.04087 7.74239 7.08595 7.83125 7.16875L10 9.3375L12.1688 7.16875C12.2576 7.08595 12.3751 7.04087 12.4966 7.04302C12.618 7.04516 12.7339 7.09435 12.8198 7.18024C12.9057 7.26612 12.9548 7.38199 12.957 7.50342C12.9591 7.62486 12.9141 7.74239 12.8313 7.83125ZM17.9688 10C17.9688 11.5761 17.5014 13.1167 16.6258 14.4272C15.7502 15.7377 14.5056 16.759 13.0495 17.3622C11.5934 17.9653 9.99116 18.1231 8.44538 17.8156C6.89959 17.5082 5.4797 16.7492 4.36525 15.6348C3.2508 14.5203 2.49185 13.1004 2.18437 11.5546C1.87689 10.0088 2.0347 8.40659 2.63784 6.95049C3.24097 5.49439 4.26235 4.24984 5.5728 3.37423C6.88326 2.49861 8.42393 2.03125 10 2.03125C12.1127 2.03373 14.1381 2.87409 15.632 4.36798C17.1259 5.86188 17.9663 7.88732 17.9688 10ZM17.0313 10C17.0313 8.60935 16.6189 7.24993 15.8463 6.09365C15.0737 4.93736 13.9755 4.03615 12.6907 3.50397C11.406 2.97179 9.9922 2.83255 8.62827 3.10385C7.26435 3.37516 6.0115 4.04482 5.02816 5.02816C4.04482 6.01149 3.37516 7.26434 3.10386 8.62827C2.83255 9.9922 2.9718 11.406 3.50398 12.6907C4.03615 13.9755 4.93737 15.0737 6.09365 15.8463C7.24993 16.6189 8.60935 17.0312 10 17.0312C11.8642 17.0292 13.6514 16.2877 14.9696 14.9696C16.2877 13.6514 17.0292 11.8642 17.0313 10Z" fill="white"/>
</svg>
