<svg width="60" height="60" viewBox="0 0 60 60" fill="none" xmlns="http://www.w3.org/2000/svg">
<circle cx="30" cy="30" r="28.5" fill="white" stroke="#339F47" stroke-width="3"/>
<circle cx="48.5" cy="35.5" r="3.5" fill="#339F47" fill-opacity="0.5"/>
<circle cx="12.5" cy="35.5" r="3.5" fill="#339F47" fill-opacity="0.5"/>
<rect x="19" y="25" width="6" height="10" rx="3" fill="#339F47"/>
<rect x="36" y="25" width="6" height="10" rx="3" fill="#339F47"/>
<path fill-rule="evenodd" clip-rule="evenodd" d="M23.5036 36C22.4114 36 21.6151 37.0398 22.1948 37.9654C23.6965 40.3632 26.7082 42 30.1785 42C33.6489 42 36.6606 40.3632 38.1623 37.9654C38.742 37.0398 37.9457 36 36.8535 36C36.2116 36 35.6429 36.3816 35.234 36.8765C34.2543 38.062 32.5345 39 30.1785 39C27.8225 39 26.1028 38.062 25.1231 36.8765C24.7141 36.3816 24.1455 36 23.5036 36Z" fill="#339F47"/>
<path fill-rule="evenodd" clip-rule="evenodd" d="M24.7498 21C24.157 21 23.6212 20.6718 23.1106 20.3704C22.7292 20.1453 22.2444 20 21.6578 20C21.0711 20 20.5863 20.1453 20.2049 20.3704C19.6944 20.6718 19.1586 21 18.5657 21C17.3869 21 16.5277 19.8668 17.2867 18.9648C18.2917 17.7704 19.8758 17 21.6578 17C23.4397 17 25.0238 17.7704 26.0288 18.9648C26.7878 19.8668 25.9286 21 24.7498 21Z" fill="#339F47"/>
<path fill-rule="evenodd" clip-rule="evenodd" d="M41.7498 21C41.157 21 40.6212 20.6718 40.1106 20.3704C39.7292 20.1453 39.2444 20 38.6578 20C38.0711 20 37.5863 20.1453 37.2049 20.3704C36.6944 20.6718 36.1586 21 35.5657 21C34.3869 21 33.5277 19.8668 34.2867 18.9648C35.2917 17.7704 36.8758 17 38.6578 17C40.4397 17 42.0238 17.7704 43.0288 18.9648C43.7878 19.8668 42.9286 21 41.7498 21Z" fill="#339F47"/>
<rect x="29" y="31" width="3" height="5" rx="1.5" fill="#339F47"/>
</svg>
