<svg width="647" height="166" viewBox="0 0 647 166" fill="none" xmlns="http://www.w3.org/2000/svg">
<path d="M180.536 149.352C178.147 149.352 176.269 149.096 174.904 148.584C173.539 148.157 172.472 147.517 171.704 146.664C171.021 145.896 170.595 144.957 170.424 143.848C170.253 142.824 170.168 141.672 170.168 140.392V113.768C170.168 110.525 170.979 107.88 172.6 105.832C174.307 103.699 177.379 102.632 181.816 102.632H256.312C258.701 102.632 260.579 102.888 261.944 103.4C263.309 103.827 264.333 104.467 265.016 105.32C265.784 106.088 266.253 107.027 266.424 108.136C266.595 109.16 266.68 110.312 266.68 111.592V138.216C266.68 142.483 265.571 145.384 263.352 146.92C261.133 148.541 258.36 149.352 255.032 149.352H180.536ZM210.744 39.656C213.048 39.656 214.84 39.912 216.12 40.424C217.4 40.8507 218.381 41.4907 219.064 42.344C219.747 43.112 220.173 44.0933 220.344 45.288C220.515 46.4827 220.6 47.848 220.6 49.384V61.16C220.6 63.72 220.301 66.536 219.704 69.608C219.107 72.68 218.125 75.752 216.76 78.824C215.48 81.896 213.731 84.84 211.512 87.656C209.379 90.3867 206.733 92.7333 203.576 94.696C201.101 96.232 198.797 96.8293 196.664 96.488C194.531 96.0613 192.696 95.2507 191.16 94.056C190.221 93.3733 189.453 92.52 188.856 91.496C188.259 90.3867 187.875 89.2347 187.704 88.04C187.619 86.8453 187.747 85.6507 188.088 84.456C188.429 83.176 189.112 82.0667 190.136 81.128C192.867 78.4827 195.128 75.624 196.92 72.552C198.797 69.3947 199.736 65.896 199.736 62.056V57.32H177.592C175.203 57.32 173.24 57.1067 171.704 56.68C170.168 56.168 168.973 55.528 168.12 54.76C167.267 53.9067 166.669 52.968 166.328 51.944C166.072 50.8347 165.944 49.64 165.944 48.36C165.944 47.336 166.072 46.312 166.328 45.288C166.669 44.1787 167.267 43.24 168.12 42.472C168.973 41.6187 170.168 40.936 171.704 40.424C173.24 39.912 175.203 39.656 177.592 39.656H210.744ZM242.104 49.256C242.104 44.9893 243.128 42.088 245.176 40.552C247.309 38.9307 249.741 38.12 252.472 38.12C253.837 38.12 255.117 38.2907 256.312 38.632C257.592 38.9733 258.701 39.5707 259.64 40.424C260.579 41.2773 261.347 42.4293 261.944 43.88C262.541 45.3307 262.84 47.1227 262.84 49.256V58.088H273.464C275.853 58.088 277.816 58.3867 279.352 58.984C280.888 59.496 282.083 60.1787 282.936 61.032C283.789 61.8853 284.344 62.8667 284.6 63.976C284.941 65 285.112 66.024 285.112 67.048C285.112 68.328 284.941 69.5227 284.6 70.632C284.344 71.7413 283.789 72.7227 282.936 73.576C282.083 74.344 280.888 74.984 279.352 75.496C277.816 76.008 275.853 76.264 273.464 76.264H262.84V86.504C262.84 88.7227 262.541 90.5573 261.944 92.008C261.347 93.4587 260.579 94.6107 259.64 95.464C258.701 96.3173 257.592 96.9147 256.312 97.256C255.117 97.5973 253.837 97.768 252.472 97.768C251.107 97.768 249.784 97.5973 248.504 97.256C247.309 96.9147 246.2 96.3173 245.176 95.464C244.237 94.6107 243.469 93.4587 242.872 92.008C242.36 90.5573 242.104 88.7227 242.104 86.504V49.256ZM190.904 119.912V132.072H245.944V119.912H190.904ZM289.105 49.128C289.105 47.848 289.233 46.696 289.489 45.672C289.83 44.5627 290.428 43.624 291.281 42.856C292.134 42.0027 293.329 41.3627 294.865 40.936C296.401 40.424 298.364 40.168 300.753 40.168H339.409C341.798 40.168 343.761 40.424 345.297 40.936C346.833 41.3627 348.028 42.0027 348.881 42.856C349.734 43.624 350.289 44.5627 350.545 45.672C350.886 46.696 351.057 47.848 351.057 49.128C351.057 50.152 350.886 51.2187 350.545 52.328C350.289 53.352 349.734 54.2907 348.881 55.144C348.028 55.912 346.833 56.552 345.297 57.064C343.761 57.576 341.798 57.832 339.409 57.832H331.985V93.032C331.985 96.616 332.284 99.9013 332.881 102.888C333.478 105.875 334.46 108.691 335.825 111.336C337.19 113.896 339.025 116.413 341.329 118.888C343.633 121.277 346.492 123.667 349.905 126.056C352.636 128.019 354.428 130.237 355.281 132.712C356.22 135.187 355.836 137.789 354.129 140.52C353.19 141.971 352.038 143.037 350.673 143.72C349.393 144.488 347.985 144.915 346.449 145C345.51 145 344.529 144.872 343.505 144.616C342.481 144.445 341.5 144.019 340.561 143.336C336.636 140.605 333.137 137.576 330.065 134.248C327.078 130.92 324.433 127.464 322.129 123.88C319.91 127.805 317.35 131.432 314.449 134.76C311.548 138.088 308.262 140.904 304.593 143.208C302.289 144.659 299.729 145.469 296.913 145.64C295.462 145.725 293.969 145.469 292.433 144.872C290.897 144.275 289.617 143.123 288.593 141.416C286.886 138.685 286.46 136.083 287.313 133.608C288.252 131.133 290.086 128.915 292.817 126.952C296.23 124.563 299.089 122.131 301.393 119.656C303.697 117.096 305.532 114.451 306.897 111.72C308.262 108.989 309.244 106.088 309.841 103.016C310.438 99.944 310.737 96.616 310.737 93.032V57.832H300.753C298.364 57.832 296.401 57.576 294.865 57.064C293.329 56.552 292.134 55.912 291.281 55.144C290.428 54.2907 289.83 53.352 289.489 52.328C289.233 51.2187 289.105 50.152 289.105 49.128ZM364.369 49.256C364.369 44.9893 365.393 42.088 367.441 40.552C369.574 38.9307 372.006 38.12 374.737 38.12C376.102 38.12 377.382 38.2907 378.577 38.632C379.857 38.9733 380.966 39.5707 381.905 40.424C382.844 41.2773 383.612 42.4293 384.209 43.88C384.806 45.3307 385.105 47.1227 385.105 49.256V79.976H393.169C395.558 79.976 397.521 80.2747 399.057 80.872C400.593 81.384 401.788 82.0667 402.641 82.92C403.494 83.7733 404.049 84.7547 404.305 85.864C404.646 86.888 404.817 87.912 404.817 88.936C404.817 90.216 404.646 91.4107 404.305 92.52C404.049 93.6293 403.494 94.6107 402.641 95.464C401.788 96.232 400.593 96.872 399.057 97.384C397.521 97.896 395.558 98.152 393.169 98.152H385.105V136.68C385.105 138.899 384.806 140.733 384.209 142.184C383.612 143.635 382.844 144.787 381.905 145.64C380.966 146.493 379.857 147.091 378.577 147.432C377.382 147.773 376.102 147.944 374.737 147.944C373.372 147.944 372.049 147.773 370.769 147.432C369.574 147.091 368.465 146.493 367.441 145.64C366.502 144.787 365.734 143.635 365.137 142.184C364.625 140.733 364.369 138.899 364.369 136.68V49.256ZM457.194 39.4C459.583 39.4 461.461 39.6987 462.826 40.296C464.191 40.808 465.215 41.5333 465.898 42.472C466.666 43.4107 467.135 44.4773 467.306 45.672C467.477 46.7813 467.562 47.976 467.562 49.256V135.784C467.562 137.064 467.477 138.216 467.306 139.24C467.135 140.349 466.666 141.288 465.898 142.056C465.215 142.909 464.191 143.549 462.826 143.976C461.461 144.488 459.583 144.744 457.194 144.744H424.17C421.781 144.744 419.903 144.488 418.538 143.976C417.173 143.549 416.106 142.909 415.338 142.056C414.655 141.288 414.229 140.349 414.058 139.24C413.887 138.216 413.802 137.064 413.802 135.784V49.256C413.802 47.976 413.887 46.7813 414.058 45.672C414.229 44.4773 414.655 43.4107 415.338 42.472C416.106 41.5333 417.173 40.808 418.538 40.296C419.903 39.6987 421.781 39.4 424.17 39.4H457.194ZM485.354 49.256C485.354 44.9893 486.378 42.088 488.426 40.552C490.559 38.9307 492.991 38.12 495.722 38.12C497.087 38.12 498.367 38.2907 499.562 38.632C500.842 38.9733 501.951 39.5707 502.89 40.424C503.829 41.2773 504.597 42.4293 505.194 43.88C505.791 45.3307 506.09 47.1227 506.09 49.256V79.976H514.154C516.543 79.976 518.506 80.232 520.042 80.744C521.578 81.256 522.773 81.9387 523.626 82.792C524.479 83.56 525.034 84.4987 525.29 85.608C525.631 86.632 525.802 87.656 525.802 88.68C525.802 89.96 525.631 91.1547 525.29 92.264C525.034 93.288 524.479 94.2267 523.626 95.08C522.773 95.848 521.578 96.488 520.042 97C518.506 97.4267 516.543 97.64 514.154 97.64H506.09V136.68C506.09 138.899 505.791 140.733 505.194 142.184C504.597 143.635 503.829 144.787 502.89 145.64C501.951 146.493 500.842 147.091 499.562 147.432C498.367 147.773 497.087 147.944 495.722 147.944C494.357 147.944 493.034 147.773 491.754 147.432C490.559 147.091 489.45 146.493 488.426 145.64C487.487 144.787 486.719 143.635 486.122 142.184C485.61 140.733 485.354 138.899 485.354 136.68V49.256ZM447.338 57.064H434.026V127.08H447.338V57.064ZM568.323 39.656C570.627 39.656 572.419 39.912 573.699 40.424C574.979 40.8507 575.96 41.4907 576.643 42.344C577.326 43.112 577.752 44.0933 577.923 45.288C578.094 46.4827 578.179 47.848 578.179 49.384V61.416H590.979V49.256C590.979 44.9893 591.79 42.088 593.411 40.552C595.032 38.9307 597.208 38.12 599.939 38.12C602.584 38.12 604.718 38.9307 606.339 40.552C608.046 42.088 608.899 44.9893 608.899 49.256V87.656C608.899 92.0933 608.088 95.08 606.467 96.616C604.931 98.152 602.798 98.92 600.067 98.92C597.336 98.92 595.118 98.152 593.411 96.616C591.79 95.08 590.979 92.0933 590.979 87.656V79.592H577.027C576.344 83.176 575.15 86.7173 573.443 90.216C571.736 93.7147 569.262 97 566.019 100.072C563.886 102.035 561.795 103.059 559.747 103.144C557.784 103.144 555.864 102.632 553.987 101.608C552.963 101.096 552.11 100.371 551.427 99.432C550.744 98.4933 550.275 97.4693 550.019 96.36C549.763 95.1653 549.763 93.9707 550.019 92.776C550.275 91.496 550.83 90.3013 551.683 89.192C552.792 87.7413 553.774 86.376 554.627 85.096C555.48 83.816 556.206 82.4933 556.803 81.128H539.523C537.134 81.128 535.214 80.9573 533.763 80.616C532.312 80.1893 531.203 79.6347 530.435 78.952C529.667 78.184 529.155 77.288 528.899 76.264C528.728 75.24 528.643 74.088 528.643 72.808C528.643 71.784 528.771 70.8027 529.027 69.864C529.283 68.84 529.795 67.944 530.563 67.176C531.416 66.408 532.568 65.8107 534.019 65.384C535.47 64.9573 537.39 64.744 539.779 64.744H558.723V56.296H540.931C538.542 56.296 536.622 56.0827 535.171 55.656C533.72 55.2293 532.611 54.6747 531.843 53.992C531.075 53.224 530.563 52.328 530.307 51.304C530.136 50.28 530.051 49.128 530.051 47.848C530.051 46.824 530.179 45.8427 530.435 44.904C530.691 43.88 531.203 42.984 531.971 42.216C532.824 41.448 533.976 40.8507 535.427 40.424C536.878 39.912 538.798 39.656 541.187 39.656H568.323ZM597.123 111.336C597.123 114.323 598.019 116.968 599.811 119.272C601.688 121.576 604.035 123.539 606.851 125.16C609.752 126.781 612.995 128.104 616.579 129.128C620.163 130.152 623.747 130.877 627.331 131.304C630.659 131.731 633.134 132.797 634.755 134.504C636.376 136.296 636.974 138.813 636.547 142.056C636.291 143.763 635.779 145.128 635.011 146.152C634.328 147.176 633.475 147.987 632.451 148.584C631.427 149.181 630.275 149.565 628.995 149.736C627.715 149.907 626.435 149.949 625.155 149.864C617.987 149.267 611.118 147.475 604.547 144.488C597.976 141.501 592.259 137.917 587.395 133.736C585.006 135.784 582.232 137.704 579.075 139.496C576.003 141.373 572.718 143.037 569.219 144.488C565.806 145.939 562.264 147.133 558.595 148.072C554.926 149.011 551.299 149.608 547.715 149.864C546.435 149.949 545.155 149.907 543.875 149.736C542.595 149.565 541.443 149.181 540.419 148.584C539.395 147.987 538.499 147.176 537.731 146.152C537.048 145.128 536.579 143.763 536.323 142.056C535.896 138.813 536.494 136.296 538.115 134.504C539.736 132.797 542.211 131.731 545.539 131.304C549.208 130.877 552.835 130.195 556.419 129.256C560.003 128.403 563.203 127.165 566.019 125.544C568.92 123.923 571.267 121.96 573.059 119.656C574.851 117.267 575.79 114.451 575.875 111.208V109.544C575.875 107.155 576.814 105.277 578.691 103.912C580.568 102.461 583.171 101.736 586.499 101.736C589.827 101.736 592.43 102.461 594.307 103.912C596.184 105.277 597.123 107.155 597.123 109.544V111.336ZM618.499 49.256C618.499 44.9893 619.31 42.088 620.931 40.552C622.552 38.9307 624.728 38.12 627.459 38.12C630.104 38.12 632.238 38.9307 633.859 40.552C635.566 42.088 636.419 44.9893 636.419 49.256V92.136C636.419 96.5733 635.608 99.56 633.987 101.096C632.451 102.632 630.318 103.4 627.587 103.4C624.856 103.4 622.638 102.632 620.931 101.096C619.31 99.56 618.499 96.5733 618.499 92.136V49.256Z" fill="#CFA36E"/>
<path d="M76.5784 32.2759C80.9624 31.2673 84.1703 27.2327 84.1703 22.4138C84.1703 16.8104 79.7862 12.2155 74.4394 12.2155C72.9427 12.2155 71.5526 12.5518 70.2692 13.2242C68.8792 5.71557 62.6773 0 55.0848 0C47.493 0 41.2911 5.71557 39.901 13.2242C38.6178 12.5518 37.2277 12.2155 35.7307 12.2155C30.3842 12.2155 26 16.8104 26 22.4138C26 27.2327 29.3149 31.2673 33.5921 32.2759C40.3287 29.8104 47.493 28.4655 54.9782 28.4655C62.4634 28.4655 69.8414 29.8104 76.5784 32.2759Z" fill="#00B493"/>
<path d="M137.5 106C143.407 131.857 114.763 166 77.8845 166C41.0061 166 0 128.749 0 93.5256C0 58.3023 19.1217 35 56 35C84.5 35 130.5 75.3571 137.5 106Z" fill="#CFA36E"/>
<path d="M55.1166 54.014C55.1166 55.3268 54.7489 57.1144 55.3195 58.309C55.7836 59.2808 58.323 60.959 59.2429 61.5056C60.3203 62.1457 61.5339 61.981 62.7435 61.981C63.2303 61.981 64.7873 61.9971 63.5045 61.6203C62.2248 61.2444 61.1384 60.272 59.8855 59.7515C58.1221 59.019 58.0938 57.1305 57.9237 55.5158M57.9237 55.5158C57.8928 55.2218 57.8571 54.9369 57.8054 54.6698C57.7373 54.3172 56.4939 52.0474 56.6555 53.4567C56.7755 54.5035 57.2344 55.0823 57.9237 55.5158ZM57.9237 55.5158C58.2573 55.7256 58.6447 55.9013 59.0738 56.0795M34.9332 91.1785C34.9332 92.7162 34.8115 94.1998 35.0034 95.5969M35.0034 95.5969C35.1533 96.6885 35.4946 97.7273 36.2349 98.6978C37.0914 99.8207 37.9662 100.208 39.1241 100.806C39.6617 101.084 41.6963 100.982 41.5688 100.982C40.4145 100.982 39.6534 100.421 38.8066 99.5587C37.4389 98.1662 35.9359 97.1552 35.0034 95.5969ZM35.0034 95.5969C34.5644 94.8633 34.2519 94.0084 34.1394 92.9353C34.0843 92.4092 33.7349 89 34.4093 89C36.5335 89 37.4057 91.33 38.6479 92.7597C39.4935 93.733 41.1978 94.0167 41.6005 95.4652C42.1734 97.5256 40.1298 95.9696 39.4257 95.6233C38.9278 95.3784 38.505 95.0655 38.1648 94.6828M38.1648 94.6828C37.8639 94.3444 37.6275 93.9514 37.4607 93.5025M38.1648 94.6828C37.9351 94.2236 37.6801 93.8121 37.4607 93.5025M38.1648 94.6828C38.3626 95.0785 38.5417 95.5096 38.6629 95.9416M37.4607 93.5025C37.3478 93.1986 37.2667 92.8692 37.2191 92.5137C37.1921 92.3115 36.8101 91.9372 36.6794 92.2677C36.5868 92.5019 37.2641 93.2331 37.3937 93.4097C37.4156 93.4395 37.438 93.4705 37.4607 93.5025ZM38.6629 95.9416C38.8665 96.6666 38.907 97.394 38.6002 97.9599C38.4793 98.183 37.7494 96.7444 37.6954 96.6247C37.4192 96.0135 37.7128 95.939 38.2351 95.922C38.3581 95.918 38.503 95.9246 38.6629 95.9416ZM38.6629 95.9416C40.2103 96.1056 43.1746 97.2369 41.5053 99.0843M103 89C103.485 91.0981 104.284 92.9752 104.985 94.9954C105.421 96.2513 105.623 97.816 106.354 98.9469C106.432 99.0675 107.717 100.201 107.688 99.9688C107.624 99.4555 106.795 98.777 106.508 98.2997C105.241 96.198 105.402 94.2369 105.002 91.9296C104.819 90.8757 104.536 88.0761 104.916 90.8395C105.26 93.336 106.425 95.8674 108.715 97.1415C109.102 97.3567 109.135 97.6925 109.131 98.0369M109.131 98.0369C109.127 98.4482 109.071 98.8719 109.502 99.1172C109.83 99.3037 111.765 100.241 110.665 99.3897C110.108 98.9584 109.617 98.4916 109.131 98.0369ZM109.131 98.0369C108.302 97.2613 107.488 96.5209 106.388 96.0514M96 139.459C98.1206 140.154 100.816 140.116 103.049 139.702C104.376 139.456 105 138.519 106 138M36 132C36.0562 134.345 37.0527 136.761 38.3957 138.632C39.2676 139.847 40.6302 140.009 41.7064 140.967C42.2316 141.434 43.084 142.128 43.9059 142.564M43.9059 142.564C44.118 142.677 44.3281 142.772 44.53 142.842M43.9059 142.564C44.0132 142.639 44.1228 142.706 44.2352 142.76C44.2891 142.787 44.3982 142.815 44.53 142.842M43.9059 142.564C43.3069 142.143 42.7778 141.448 42.2222 141.001C40.2432 139.41 40.4374 137.443 38.9946 135.536C38.5821 134.991 36.4763 133.146 37.2311 132.186C37.5697 131.756 41.1306 136.433 41.5401 137.008C42.3478 138.142 43.4549 139.385 44.7843 139.63C45.3752 139.74 46.8909 141.745 45.2834 141.745M44.53 142.842C44.7116 142.905 44.8866 142.948 45.0505 142.964C46.0115 143.057 45.0755 142.955 44.53 142.842ZM17 104C18.8668 105.943 19.6621 108.384 21.5588 110.286C23.1107 111.842 25.2408 112.718 27 114M67.2408 133C67.2292 133.002 67.2954 133.146 67.4187 133.379M67.4187 133.379C67.6362 133.791 68.031 134.478 68.4887 135.142M67.4187 133.379C67.8074 133.257 68.3561 133.428 68.5625 134.086C68.6994 134.523 68.9087 134.906 69.166 135.263M67.4187 133.379C66.9134 133.539 66.6785 134.194 67.8179 134.918C67.9653 135.011 68.2051 135.082 68.4887 135.142M68.4887 135.142C69.1071 136.04 69.8401 136.895 70.4054 136.971C71.1937 137.077 70.6816 136.882 70.3868 136.598C69.9336 136.16 69.5075 135.735 69.166 135.263M68.4887 135.142C68.6972 135.187 68.9294 135.225 69.166 135.263M69.166 135.263C70.3681 135.452 71.6848 135.612 70.5916 136.36" stroke="#A27645" stroke-width="3" stroke-linecap="round"/>
</svg>
