<svg width="139" height="166" viewBox="0 0 139 166" fill="none" xmlns="http://www.w3.org/2000/svg">
<path d="M77.5784 32.2759C81.9624 31.2673 85.1703 27.2327 85.1703 22.4138C85.1703 16.8104 80.7862 12.2155 75.4394 12.2155C73.9427 12.2155 72.5526 12.5518 71.2692 13.2242C69.8792 5.71557 63.6773 0 56.0848 0C48.493 0 42.2911 5.71557 40.901 13.2242C39.6178 12.5518 38.2277 12.2155 36.7307 12.2155C31.3842 12.2155 27 16.8104 27 22.4138C27 27.2327 30.3149 31.2673 34.5921 32.2759C41.3287 29.8104 48.493 28.4655 55.9782 28.4655C63.4634 28.4655 70.8414 29.8104 77.5784 32.2759Z" fill="#00B493"/>
<path d="M137.5 106C143.407 131.857 114.763 166 77.8845 166C41.0061 166 0 128.749 0 93.5256C0 58.3023 19.1217 35 56 35C84.5 35 130.5 75.3571 137.5 106Z" fill="#CFA36E"/>
<path d="M56.1165 54.014C56.1165 55.3268 55.7489 57.1144 56.3195 58.309C56.7836 59.2808 59.323 60.959 60.2429 61.5056C61.3203 62.1457 62.5339 61.981 63.7435 61.981C64.2303 61.981 65.7873 61.9971 64.5045 61.6203C63.2248 61.2444 62.1384 60.272 60.8855 59.7515C58.8011 58.8856 59.141 56.4046 58.8054 54.6698C58.7373 54.3172 57.4939 52.0474 57.6555 53.4567C57.8335 55.0099 58.7579 55.5329 60.0738 56.0795" stroke="#A27645" stroke-width="3" stroke-linecap="round"/>
<path d="M35.9332 91.1785C35.9332 93.9176 35.5472 96.4852 37.2349 98.6978C38.0914 99.8207 38.9662 100.208 40.1241 100.806C40.6617 101.084 42.6963 100.982 42.5688 100.982C41.4145 100.982 40.6534 100.421 39.8066 99.5587C37.7951 97.5106 35.4906 96.2878 35.1394 92.9353C35.0843 92.4092 34.7349 89 35.4093 89C37.5335 89 38.4057 91.33 39.6479 92.7597C40.4935 93.733 42.1978 94.0167 42.6005 95.4652C43.1734 97.5256 41.1298 95.9696 40.4257 95.6233C39.1894 95.0152 38.4165 93.988 38.2191 92.5137C38.1921 92.3115 37.8101 91.9372 37.6794 92.2677C37.5868 92.5019 38.2641 93.2331 38.3937 93.4097C39.1147 94.3916 40.324 96.625 39.6002 97.9599C39.4793 98.183 38.7494 96.7444 38.6954 96.6247C38.4192 96.0135 38.7128 95.939 39.2351 95.922C40.5478 95.8793 44.3472 97.0459 42.5053 99.0843" stroke="#A27645" stroke-width="3" stroke-linecap="round"/>
<path d="M104 89C104.485 91.0981 105.284 92.9752 105.985 94.9954C106.421 96.2513 106.623 97.816 107.354 98.9469C107.432 99.0675 108.717 100.201 108.688 99.9688C108.624 99.4555 107.795 98.777 107.508 98.2997C106.241 96.198 106.402 94.2369 106.002 91.9296C105.819 90.8757 105.536 88.0761 105.916 90.8395C106.26 93.336 107.425 95.8674 109.715 97.1415C110.564 97.6136 109.709 98.6664 110.502 99.1172C110.83 99.3037 112.765 100.241 111.665 99.3897C110.158 98.2227 109.133 96.7961 107.388 96.0514" stroke="#A27645" stroke-width="3" stroke-linecap="round"/>
<path d="M97 139.459C99.1206 140.154 101.816 140.116 104.049 139.702C105.376 139.456 106 138.519 107 138" stroke="#A27645" stroke-width="3" stroke-linecap="round"/>
<path d="M37 132C37.0562 134.345 38.0527 136.761 39.3957 138.632C40.2676 139.847 41.6302 140.009 42.7064 140.967C43.4891 141.664 44.9985 142.862 46.0505 142.964C47.2439 143.079 45.5119 142.895 45.2352 142.76C44.4957 142.401 43.8774 141.528 43.2222 141.001C41.2432 139.41 41.4374 137.443 39.9946 135.536C39.5821 134.991 37.4763 133.146 38.2311 132.186C38.5697 131.756 42.1306 136.433 42.5401 137.008C43.3478 138.142 44.4549 139.385 45.7843 139.63C46.3752 139.74 47.8909 141.745 46.2834 141.745" stroke="#A27645" stroke-width="3" stroke-linecap="round"/>
<path d="M18 104C19.8668 105.943 20.6621 108.384 22.5588 110.286C24.1107 111.842 26.2408 112.718 28 114" stroke="#A27645" stroke-width="3" stroke-linecap="round"/>
<path d="M68.2408 133C68.181 133.008 70.1845 136.807 71.4054 136.971C72.1937 137.077 71.6816 136.882 71.3868 136.598C70.5922 135.831 69.8812 135.103 69.5625 134.086C69.0879 132.572 66.8021 133.637 68.8179 134.918C69.6241 135.43 73.1928 135.265 71.5916 136.36" stroke="#A27645" stroke-width="3" stroke-linecap="round"/>
</svg>
