<svg width="18" height="18" viewBox="0 0 18 18" fill="none" xmlns="http://www.w3.org/2000/svg"><circle cx="9" cy="9" r="8.5" stroke="#868B94"></circle><path d="M8.25586 11.0977C8.26367 10.6328 8.31641 10.2656 8.41406 9.99609C8.51172 9.72656 8.71094 9.42773 9.01172 9.09961L9.7793 8.30859C10.1074 7.9375 10.2715 7.53906 10.2715 7.11328C10.2715 6.70312 10.1641 6.38281 9.94922 6.15234C9.73438 5.91797 9.42188 5.80078 9.01172 5.80078C8.61328 5.80078 8.29297 5.90625 8.05078 6.11719C7.80859 6.32812 7.6875 6.61133 7.6875 6.9668H6.60352C6.61133 6.33398 6.83594 5.82422 7.27734 5.4375C7.72266 5.04688 8.30078 4.85156 9.01172 4.85156C9.75 4.85156 10.3242 5.05078 10.7344 5.44922C11.1484 5.84375 11.3555 6.38672 11.3555 7.07812C11.3555 7.76172 11.0391 8.43555 10.4062 9.09961L9.76758 9.73242C9.48242 10.0488 9.33984 10.5039 9.33984 11.0977H8.25586ZM8.20898 12.9551C8.20898 12.7793 8.26172 12.6328 8.36719 12.5156C8.47656 12.3945 8.63672 12.334 8.84766 12.334C9.05859 12.334 9.21875 12.3945 9.32812 12.5156C9.4375 12.6328 9.49219 12.7793 9.49219 12.9551C9.49219 13.1309 9.4375 13.2773 9.32812 13.3945C9.21875 13.5078 9.05859 13.5645 8.84766 13.5645C8.63672 13.5645 8.47656 13.5078 8.36719 13.3945C8.26172 13.2773 8.20898 13.1309 8.20898 12.9551Z" fill="#868B94"></path></svg>