<svg width="20" height="20" viewBox="0 0 20 20" fill="none" xmlns="http://www.w3.org/2000/svg">
<path fill-rule="evenodd" clip-rule="evenodd" d="M1.5999 8.5C1.5999 4.68926 4.68914 1.60002 8.4999 1.60002C12.3107 1.60002 15.3999 4.68926 15.3999 8.5C15.3999 12.3108 12.3107 15.4 8.4999 15.4C4.68914 15.4 1.5999 12.3108 1.5999 8.5ZM8.4999 0.400024C4.0264 0.400024 0.399902 4.02652 0.399902 8.5C0.399902 12.9735 4.0264 16.6 8.4999 16.6C10.5207 16.6 12.3687 15.86 13.7876 14.6362L18.5756 19.4243C18.81 19.6586 19.1899 19.6586 19.4242 19.4243C19.6585 19.19 19.6585 18.8101 19.4242 18.5758L14.6361 13.7877C15.8599 12.3688 16.5999 10.5208 16.5999 8.5C16.5999 4.02652 12.9734 0.400024 8.4999 0.400024Z" fill="#212124"/>
</svg>
