<svg width="24" height="24" viewBox="0 0 24 24" fill="none" xmlns="http://www.w3.org/2000/svg"><path fill-rule="evenodd" clip-rule="evenodd" d="M5.57564 5.57573C5.80995 5.34142 6.18985 5.34142 6.42417 5.57573L11.9999 11.1515L17.5756 5.57573C17.81 5.34142 18.1899 5.34142 18.4242 5.57573C18.6585 5.81004 18.6585 6.18994 18.4242 6.42426L12.8484 12L18.4242 17.5757C18.6585 17.81 18.6585 18.1899 18.4242 18.4243C18.1899 18.6586 17.81 18.6586 17.5756 18.4243L11.9999 12.8485L6.42417 18.4243C6.18985 18.6586 5.80995 18.6586 5.57564 18.4243C5.34132 18.1899 5.34132 17.81 5.57564 17.5757L11.1514 12L5.57564 6.42426C5.34132 6.18994 5.34132 5.81004 5.57564 5.57573Z" fill="#212124"></path></svg>